<svg width="16" height="13" viewBox="0 0 16 13" fill="none" xmlns="http://www.w3.org/2000/svg">
<path d="M1.86667 2.46667L4.66667 4.33334L7.45734 0.426671C7.51901 0.34025 7.60043 0.269808 7.69481 0.221206C7.7892 0.172603 7.89384 0.147247 8.00001 0.147247C8.10617 0.147247 8.21081 0.172603 8.3052 0.221206C8.39959 0.269808 8.481 0.34025 8.54267 0.426671L11.3333 4.33334L14.1333 2.46667C14.2393 2.39617 14.3632 2.35747 14.4905 2.35516C14.6178 2.35285 14.743 2.38701 14.8515 2.45362C14.9599 2.52022 15.0471 2.61648 15.1026 2.73103C15.1581 2.84557 15.1796 2.97361 15.1647 3.1L14.0693 12.4113C14.0502 12.5735 13.9723 12.723 13.8503 12.8315C13.7282 12.94 13.5706 13 13.4073 13H2.59267C2.42938 13 2.27178 12.94 2.14976 12.8315C2.02773 12.723 1.94978 12.5735 1.93067 12.4113L0.835338 3.09934C0.820538 2.97299 0.842195 2.84505 0.897752 2.73062C0.953309 2.61618 1.04045 2.52003 1.14888 2.45351C1.25731 2.38699 1.38251 2.35289 1.5097 2.35522C1.63689 2.35755 1.76075 2.39622 1.86667 2.46667ZM8.00001 9C8.35363 9 8.69277 8.85953 8.94281 8.60948C9.19286 8.35943 9.33334 8.02029 9.33334 7.66667C9.33334 7.31305 9.19286 6.97391 8.94281 6.72386C8.69277 6.47381 8.35363 6.33334 8.00001 6.33334C7.64638 6.33334 7.30724 6.47381 7.0572 6.72386C6.80715 6.97391 6.66667 7.31305 6.66667 7.66667C6.66667 8.02029 6.80715 8.35943 7.0572 8.60948C7.30724 8.85953 7.64638 9 8.00001 9Z" fill="#E69039"/>
</svg>
