<svg width="40" height="40" viewBox="0 0 40 40" fill="none" xmlns="http://www.w3.org/2000/svg">
<rect width="40" height="40" rx="20" fill="#DBEACF"/>
<rect x="5" y="5" width="30" height="30" rx="15" fill="#4C9610"/>
<path d="M26.75 23.315V25.967C26.7501 26.1569 26.6781 26.3397 26.5487 26.4786C26.4192 26.6176 26.2419 26.7022 26.0525 26.7155C25.7247 26.738 25.457 26.75 25.25 26.75C18.6223 26.75 13.25 21.3778 13.25 14.75C13.25 14.543 13.2613 14.2753 13.2845 13.9475C13.2978 13.7581 13.3824 13.5808 13.5214 13.4513C13.6603 13.3219 13.8431 13.2499 14.033 13.25H16.685C16.778 13.2499 16.8678 13.2844 16.9368 13.3468C17.0058 13.4091 17.0492 13.4949 17.0585 13.5875C17.0758 13.76 17.0915 13.8973 17.1065 14.0015C17.2556 15.0417 17.561 16.0534 18.0125 17.0023C18.0838 17.1523 18.0373 17.3315 17.9023 17.4275L16.2838 18.584C17.2733 20.8898 19.1109 22.7274 21.4167 23.717L22.5717 22.1015C22.619 22.0355 22.6878 21.9882 22.7664 21.9677C22.8449 21.9473 22.9281 21.9551 23.0015 21.9897C23.9503 22.4404 24.9617 22.7451 26.0015 22.8935C26.1058 22.9085 26.243 22.925 26.414 22.9415C26.5064 22.951 26.592 22.9944 26.6543 23.0634C26.7165 23.1324 26.7509 23.2221 26.7507 23.315H26.75Z" fill="#F6F9F3"/>
</svg>
