<svg width="20" height="20" viewBox="0 0 20 20" fill="none" xmlns="http://www.w3.org/2000/svg">
<rect width="20" height="20" rx="10" fill="#1A63F4"/>
<path d="M6.66702 6.27302C7.18039 5.81316 7.78337 5.46452 8.43802 5.24902C8.62521 5.48354 8.86286 5.67284 9.13328 5.80286C9.40371 5.93288 9.69997 6.00027 10 6.00002C10.3001 6.00027 10.5963 5.93288 10.8668 5.80286C11.1372 5.67284 11.3748 5.48354 11.562 5.24902C12.2167 5.46452 12.8197 5.81316 13.333 6.27302C13.2238 6.55225 13.1788 6.85249 13.2015 7.15147C13.2242 7.45044 13.3139 7.74047 13.464 8.00002C13.6138 8.26007 13.8203 8.483 14.0682 8.65223C14.316 8.82147 14.5988 8.93266 14.8955 8.97752C15.0358 9.65197 15.0358 10.3481 14.8955 11.0225C14.3155 11.1115 13.7805 11.4525 13.464 12C13.3138 12.2596 13.2241 12.5498 13.2014 12.8488C13.1787 13.1479 13.2237 13.4482 13.333 13.7275C12.8196 14.1872 12.2166 14.5357 11.562 14.751C11.3748 14.5166 11.1371 14.3274 10.8667 14.1975C10.5963 14.0675 10.3 14.0002 10 14.0005C9.69997 14.0003 9.40371 14.0677 9.13328 14.1977C8.86286 14.3277 8.62521 14.517 8.43802 14.7515C7.78341 14.5362 7.18043 14.1877 6.66702 13.728C6.77635 13.4487 6.82134 13.1484 6.79867 12.8493C6.77599 12.5503 6.68622 12.2601 6.53602 12.0005C6.38617 11.7406 6.17965 11.5177 5.93182 11.3486C5.68398 11.1794 5.40121 11.0683 5.10452 11.0235C4.96418 10.3489 4.96418 9.65264 5.10452 8.97802C5.40126 8.93316 5.68406 8.82197 5.93189 8.65273C6.17973 8.4835 6.38623 8.26057 6.53602 8.00052C6.68614 7.74097 6.77587 7.45094 6.79855 7.15197C6.82122 6.85299 6.77627 6.55275 6.66702 6.27352V6.27302ZM10.75 11.299C10.922 11.2013 11.0729 11.0704 11.1941 10.9141C11.3153 10.7577 11.4044 10.579 11.4562 10.3881C11.5081 10.1972 11.5216 9.99788 11.4961 9.80171C11.4706 9.60554 11.4066 9.41635 11.3077 9.24503C11.2088 9.07372 11.0769 8.92366 10.9198 8.80349C10.7627 8.68333 10.5833 8.59544 10.392 8.54488C10.2008 8.49431 10.0014 8.48208 9.80544 8.50888C9.60944 8.53567 9.42068 8.60098 9.25002 8.70102C8.90831 8.90135 8.65971 9.2287 8.55847 9.61165C8.45722 9.99459 8.51156 10.402 8.70961 10.7451C8.90767 11.0881 9.23336 11.3389 9.61563 11.4426C9.99789 11.5464 10.4057 11.4948 10.75 11.299Z" fill="white"/>
</svg>
