<svg width="84" height="84" viewBox="0 0 84 84" fill="none" xmlns="http://www.w3.org/2000/svg">
<path d="M84 42C84 62.6771 69.0582 79.8643 49.3828 83.3531V67.9219H8.95141C3.34409 60.7829 0 51.7819 0 42C0 18.804 18.804 0 42 0C65.196 0 84 18.804 84 42Z" fill="#FFF261"/>
<path d="M52.9758 77.9301H30.3513C28.5391 77.9301 27.07 76.4611 27.07 74.6489V63.1645C27.07 61.3523 28.5391 59.8833 30.3513 59.8833H52.9758C54.7881 59.8833 56.2571 61.3523 56.2571 63.1645V74.6489C56.2571 76.4611 54.7881 77.9301 52.9758 77.9301ZM73.9045 30.5605H11.8262C10.0139 30.5605 8.54492 32.0296 8.54492 33.8418V52.8827C8.54492 54.695 10.0139 56.164 11.8262 56.164H73.9043C75.7165 56.164 77.1856 54.695 77.1856 52.8827V33.8418C77.1857 32.0297 75.7167 30.5605 73.9045 30.5605Z" fill="#FFEA00"/>
<path d="M49.4561 7.38281V82.8516V82.8567C49.4555 83.1402 48.4652 83.5062 48.217 83.5429C46.1884 83.844 44.1123 84 42 84C32.0081 84 22.8311 80.5107 15.621 74.6844C13.4052 72.8936 12.1406 70.179 12.1406 67.3303V12.4633C15.1011 9.47067 10.8559 6.92081 14.6016 4.92188H46.9952C48.3543 4.92188 49.4561 6.02372 49.4561 7.38281Z" fill="#8379C2"/>
<path d="M15.7291 4.92188V74.7713C12.8641 72.4717 10.3072 69.8042 8.12988 66.8404V6.5625C10.3072 3.59871 12.8642 7.22154 15.7291 4.92188Z" fill="#6E61B7"/>
<path d="M32.4844 9.76172C32.4844 10.4413 31.9335 10.9922 31.2539 10.9922H26.332C25.6525 10.9922 25.1016 10.4413 25.1016 9.76172C25.1016 9.08217 25.6525 8.53125 26.332 8.53125H31.2539C31.9335 8.53125 32.4844 9.08217 32.4844 9.76172ZM51.0234 15.9141C51.703 15.9141 52.2539 15.3631 52.2539 14.6836V9.76172C52.2539 9.08217 51.703 8.53125 51.0234 8.53125C50.9066 8.53125 50.7936 8.54749 50.6866 8.57801V7.38281C50.6866 5.34729 49.0307 3.69141 46.9952 3.69141H10.5907C8.5552 3.69141 6.89932 5.34729 6.89932 7.38281V8.57801C6.79235 8.54749 6.67931 8.53125 6.5625 8.53125C5.88295 8.53125 5.33203 9.08217 5.33203 9.76172V14.6836C5.33203 15.3631 5.88295 15.9141 6.5625 15.9141C6.67931 15.9141 6.79235 15.8978 6.89932 15.8673V65.0724C7.66484 66.2345 8.4863 67.3565 9.36026 68.4341V7.38281C9.36026 6.70425 9.91233 6.15234 10.5907 6.15234H46.9952C47.6736 6.15234 48.2257 6.70425 48.2257 7.38281V83.5418C49.0542 83.4187 49.8747 83.2714 50.6866 83.1006V25.8751C50.7937 25.9055 50.9066 25.9219 51.0234 25.9219C51.703 25.9219 52.2539 25.371 52.2539 24.6914V19.7695C52.2539 19.09 51.703 18.5391 51.0234 18.5391C50.9066 18.5391 50.7936 18.5553 50.6866 18.5858V15.8673C50.7936 15.8978 50.9066 15.9141 51.0234 15.9141Z" fill="#54469D"/>
<path d="M84 26.8965V45.9374C84 47.7496 82.531 49.2187 80.7188 49.2187H18.6406C16.8284 49.2187 15.3594 47.7496 15.3594 45.9374V26.8965C15.3594 25.0842 16.8284 23.6152 18.6406 23.6152H80.7188C82.531 23.6152 84 25.0844 84 26.8965Z" fill="#64DCFC"/>
<path d="M24.4563 49.2733H18.6406C16.8284 49.2733 15.3594 47.8043 15.3594 45.9921V26.9512C15.3594 25.1389 16.8284 23.6699 18.6406 23.6699H24.4594C22.6472 23.6699 21.1782 25.1389 21.1782 26.9512V45.9921C21.1782 47.8032 22.6456 49.2717 24.4563 49.2733Z" fill="#00D1FC"/>
<path d="M37.3389 36.5039V39.7852C37.3389 40.4647 36.7879 41.0156 36.1084 41.0156C35.4289 41.0156 34.8779 40.4647 34.8779 39.7852V36.5039C34.8779 35.8244 35.4289 35.2734 36.1084 35.2734C36.7879 35.2734 37.3389 35.8244 37.3389 36.5039ZM41.0283 31.582C40.3488 31.582 39.7978 32.133 39.7978 32.8125V42.6562C39.7978 43.3358 40.3488 43.8867 41.0283 43.8867C41.7079 43.8867 42.2588 43.3358 42.2588 42.6562V32.8125C42.2588 32.133 41.7079 31.582 41.0283 31.582ZM45.9484 34.8633C45.2688 34.8633 44.7179 35.4142 44.7179 36.0938V39.375C44.7179 40.0545 45.2688 40.6055 45.9484 40.6055C46.6279 40.6055 47.1788 40.0545 47.1788 39.375V36.0938C47.1788 35.4142 46.6279 34.8633 45.9484 34.8633ZM50.8683 33.2227C50.1887 33.2227 49.6378 33.7736 49.6378 34.4531V41.0156C49.6378 41.6952 50.1887 42.2461 50.8683 42.2461C51.5478 42.2461 52.0987 41.6952 52.0987 41.0156V34.4531C52.0987 33.7736 51.5478 33.2227 50.8683 33.2227ZM55.7883 34.8633C55.1088 34.8633 54.5579 35.4142 54.5579 36.0938V37.7344C54.5579 38.4139 55.1088 38.9648 55.7883 38.9648C56.4679 38.9648 57.0188 38.4139 57.0188 37.7344V36.0938C57.0188 35.4142 56.4679 34.8633 55.7883 34.8633ZM60.7083 33.2227C60.0287 33.2227 59.4778 33.7736 59.4778 34.4531V39.375C59.4778 40.0545 60.0287 40.6055 60.7083 40.6055C61.3878 40.6055 61.9387 40.0545 61.9387 39.375V34.4531C61.9387 33.7736 61.3878 33.2227 60.7083 33.2227ZM65.6283 31.582C64.9488 31.582 64.3979 32.133 64.3979 32.8125V44.2969C64.3979 44.9764 64.9488 45.5273 65.6283 45.5273C66.3079 45.5273 66.8588 44.9764 66.8588 44.2969V32.8125C66.8588 32.133 66.3079 31.582 65.6283 31.582ZM70.5482 28.3008C69.8687 28.3008 69.3178 28.8517 69.3178 29.5312V41.0156C69.3178 41.6952 69.8687 42.2461 70.5482 42.2461C71.2278 42.2461 71.7787 41.6952 71.7787 41.0156V29.5312C71.7787 28.8517 71.2278 28.3008 70.5482 28.3008ZM75.4683 34.8633C74.7887 34.8633 74.2378 35.4142 74.2378 36.0938V37.7344C74.2378 38.4139 74.7887 38.9648 75.4683 38.9648C76.1478 38.9648 76.6988 38.4139 76.6988 37.7344V36.0938C76.6988 35.4142 76.1478 34.8633 75.4683 34.8633Z" fill="#C9F0FF"/>
<path d="M44.4449 60.0059V71.4902C44.4449 73.3025 42.9758 74.7715 41.1636 74.7715H7.54688C5.73464 74.7715 4.26562 73.3025 4.26562 71.4902V60.0059C4.26562 58.1936 5.73464 56.7246 7.54688 56.7246H41.1636C42.9758 56.7246 44.4449 58.1936 44.4449 60.0059Z" fill="#00E294"/>
<path d="M13.125 74.7715H7.54688C5.73464 74.7715 4.26562 73.3025 4.26562 71.4902V60.0059C4.26562 58.1936 5.73464 56.7246 7.54688 56.7246H13.125C11.3128 56.7246 9.84375 58.1936 9.84375 60.0059V71.4902C9.84375 73.3025 11.3128 74.7715 13.125 74.7715Z" fill="#00D683"/>
<path d="M29.8594 68.291C29.8594 68.9706 29.3085 69.5215 28.6289 69.5215H9.76172C9.08217 69.5215 8.53125 68.9706 8.53125 68.291C8.53125 67.6115 9.08217 67.0605 9.76172 67.0605H28.6289C29.3085 67.0605 29.8594 67.6115 29.8594 68.291ZM40.1133 62.1387H9.76172C9.08217 62.1387 8.53125 62.6896 8.53125 63.3691C8.53125 64.0487 9.08217 64.5996 9.76172 64.5996H40.1133C40.7928 64.5996 41.3438 64.0487 41.3438 63.3691C41.3438 62.6896 40.7928 62.1387 40.1133 62.1387Z" fill="#5DFFB9"/>
<path d="M16.4883 15.9141H14.1914C13.5119 15.9141 12.9609 15.3631 12.9609 14.6836C12.9609 14.004 13.5119 13.4531 14.1914 13.4531H16.4883C17.1678 13.4531 17.7188 14.004 17.7188 14.6836C17.7188 15.3631 17.1678 15.9141 16.4883 15.9141ZM12.9609 9.76172C12.9609 10.4413 13.5119 10.9922 14.1914 10.9922H16.4883C17.1678 10.9922 17.7188 10.4413 17.7188 9.76172C17.7188 9.08217 17.1678 8.53125 16.4883 8.53125H14.1914C13.5119 8.53125 12.9609 9.08217 12.9609 9.76172ZM38.6367 10.5C37.9572 10.5 37.4062 11.0509 37.4062 11.7305V14.0273C37.4062 14.7069 37.9572 15.2578 38.6367 15.2578C39.3163 15.2578 39.8672 14.7069 39.8672 14.0273V11.7305C39.8672 11.0509 39.3163 10.5 38.6367 10.5ZM43.5586 8.53125C42.879 8.53125 42.3281 9.08217 42.3281 9.76172V14.0273C42.3281 14.7069 42.879 15.2578 43.5586 15.2578C44.2381 15.2578 44.7891 14.7069 44.7891 14.0273V9.76172C44.7891 9.08217 44.2381 8.53125 43.5586 8.53125Z" fill="#C3BDE1"/>
<path d="M30.0683 41.3117C28.3831 44.4259 25.0743 46.5329 21.2765 46.4982C15.9176 46.4491 11.5339 42.0652 11.4848 36.7063C11.4497 32.867 13.6035 29.5275 16.7738 27.8598C16.9514 27.7665 17.1523 27.942 17.0803 28.1292C16.6447 29.2637 16.4123 30.4988 16.4273 31.7901C16.49 37.1315 20.8503 41.4923 26.1917 41.5555C27.4422 41.5702 28.6402 41.3528 29.745 40.9435C29.9712 40.8598 30.1832 41.0995 30.0683 41.3117Z" fill="#0091D0"/>
<path d="M31.2541 36.6133C31.2541 38.3261 30.8184 39.9372 30.0519 41.3419C28.6473 42.1084 27.0362 42.5441 25.3232 42.5441C19.8641 42.5441 15.4385 38.1185 15.4385 32.6594C15.4385 30.9466 15.8742 29.3355 16.6407 27.9308C18.0453 27.1643 19.6564 26.7285 21.3693 26.7285C26.8285 26.7285 31.2541 31.1541 31.2541 36.6133Z" fill="#00AAF2"/>
<path d="M25.7708 37.4407L19.2368 42.2727C18.8037 42.5929 18.1904 42.2839 18.1904 41.7451V32.0813C18.1904 31.5425 18.8037 31.2332 19.2368 31.5537L25.7708 36.3856C26.1255 36.6478 26.1255 37.1784 25.7708 37.4407Z" fill="#FFF5F5"/>
</svg>
