<svg width="48" height="48" viewBox="0 0 48 48" fill="none" xmlns="http://www.w3.org/2000/svg">
<g clip-path="url(#clip0_356_1993)">
<path d="M46.884 15.2704L24.5128 8.08479C24.1879 7.97075 23.8343 7.96849 23.508 8.07839L1.1128 15.2712C0.449303 15.4852 -0.000302359 16.1028 1.52563e-07 16.8V38.152C0.000496385 39.1758 0.650405 40.0866 1.6184 40.42L23.2104 47.8648C23.464 47.9546 23.731 48.0003 24 48C24.2655 48 24.529 47.9545 24.7792 47.8656L46.3792 40.4176C47.3473 40.0853 47.9981 39.1755 48 38.152V16.8C48 16.1018 47.5489 15.4835 46.884 15.2704V15.2704ZM23.2 9.85919V20.8C23.2 21.2418 23.5582 21.6 24 21.6C24.4418 21.6 24.8 21.2418 24.8 20.8V9.85759L46.4 16.7936V16.8V16.8064H46.3952L24 24L1.6048 16.7936L23.2 9.85919ZM1.6 38.152V18.4856L23.2 25.4232V46.1688L2.1416 38.908C1.81809 38.7976 1.60048 38.4938 1.6 38.152V38.152ZM45.8592 38.908L24.8 46.1696V25.4232L46.4 18.4848V38.152C46.3996 38.4936 46.1824 38.7973 45.8592 38.908Z" fill="#9E99AB"/>
<path d="M20.4888 26.2328L5.28875 21.3528C4.80238 21.1967 4.27074 21.2823 3.85787 21.583C3.44501 21.8838 3.20056 22.3636 3.19995 22.8744V36.44C3.2002 37.1224 3.63323 37.7295 4.27835 37.952L19.4784 43.1936C19.9675 43.3623 20.508 43.284 20.9292 42.9835C21.3504 42.683 21.6003 42.1974 21.6 41.68V27.76C21.6031 27.0628 21.1531 26.4443 20.4888 26.2328V26.2328ZM4.79995 28.2976L20 33.1776V36.92L4.79995 32.04V28.2976ZM20 27.76V31.5032L4.79995 26.6232V22.8744L20 27.76ZM4.79995 36.44V33.72L20 38.6V41.68L4.79995 36.44Z" fill="#9E99AB"/>
<path d="M44.1423 21.5808C43.7289 21.2812 43.1977 21.1957 42.7111 21.3504L27.5111 26.2304C26.8459 26.4422 26.3957 27.0619 26.3999 27.76V41.68C26.4001 42.1971 26.6502 42.6822 27.0713 42.9824C27.4925 43.2825 28.0327 43.3606 28.5215 43.192L43.7215 37.9504C44.3661 37.7281 44.799 37.1218 44.7999 36.44V22.8744C44.7987 22.3632 44.5546 21.883 44.1423 21.5808V21.5808ZM43.1999 22.8744V28.4408L39.1799 29.7296C38.212 30.0575 37.5712 30.9784 37.5999 32C37.5979 32.7077 37.1312 33.3299 36.4524 33.53C35.7736 33.7302 35.044 33.4606 34.6583 32.8672C34.0919 32.0259 33.031 31.6702 32.0719 32L27.9999 33.3048V27.76L43.1999 22.8744ZM27.9999 41.68V34.984L32.5599 33.5264C32.8296 33.4256 33.1335 33.5088 33.3143 33.7328C34.0862 34.9241 35.5507 35.4646 36.9114 35.0603C38.2721 34.6559 39.2039 33.4035 39.1999 31.984C39.1774 31.6636 39.3676 31.3664 39.6679 31.2528L43.1999 30.1208V36.4408L27.9999 41.68Z" fill="#9E99AB"/>
<path d="M24.0002 6.39999C24.442 6.39999 24.8002 6.04181 24.8002 5.59999V0.799985C24.8002 0.358157 24.442 -1.52588e-05 24.0002 -1.52588e-05C23.5584 -1.52588e-05 23.2002 0.358157 23.2002 0.799985V5.59999C23.2002 6.04181 23.5584 6.39999 24.0002 6.39999Z" fill="#9E99AB"/>
<path d="M12.8839 7.5576C13.0814 7.95304 13.5621 8.1135 13.9575 7.91601C14.353 7.71851 14.5134 7.23784 14.3159 6.84241L11.9159 2.0424C11.7184 1.64697 11.2378 1.48651 10.8423 1.684C10.4469 1.8815 10.2864 2.36217 10.4839 2.7576L12.8839 7.5576Z" fill="#9E99AB"/>
<path d="M34.0423 7.92C34.2331 8.01593 34.4543 8.0316 34.6567 7.96353C34.8591 7.89547 35.0259 7.74931 35.1199 7.5576L37.5199 2.7576C37.7174 2.36217 37.557 1.8815 37.1615 1.684C36.7661 1.48651 36.2854 1.64697 36.0879 2.0424L33.6879 6.8424C33.5915 7.0322 33.5746 7.25262 33.6411 7.45488C33.7076 7.65713 33.852 7.82453 34.0423 7.92V7.92Z" fill="#9E99AB"/>
</g>
<defs>
<clipPath id="clip0_356_1993">
<rect width="48" height="48" fill="white"/>
</clipPath>
</defs>
</svg>
