<svg width="84" height="84" viewBox="0 0 84 84" fill="none" xmlns="http://www.w3.org/2000/svg">
<g clip-path="url(#clip0)">
<path d="M41.9899 66.6975C44.9008 66.6975 47.2605 64.3378 47.2605 61.4269C47.2605 58.516 44.9008 56.1562 41.9899 56.1562C39.079 56.1562 36.7192 58.516 36.7192 61.4269C36.7192 64.3378 39.079 66.6975 41.9899 66.6975Z" fill="#29B6F6"/>
<path d="M42.5578 56.1875C45.8495 59.7054 43.0435 65.5516 38.1416 65.0267C41.4018 68.5109 47.2606 66.1794 47.2606 61.4273C47.2606 58.7084 45.2016 56.4709 42.5578 56.1875Z" fill="#0288D1"/>
<path d="M56.9037 44.7634C54.4935 42.8291 51.7009 41.3528 48.6596 40.4663L53.2615 35.8644C55.908 36.9523 58.3646 38.4105 60.5655 40.1756C61.9353 41.2743 62.0616 43.3121 60.8201 44.5538C59.7603 45.6134 58.0746 45.7031 56.9037 44.7634ZM23.4142 40.1756C22.0444 41.2743 21.918 43.3121 23.1596 44.5538C24.1617 45.5796 25.8702 45.7312 27.0759 44.7634C30.4721 42.0378 34.6272 40.2217 39.1684 39.6845L45.0502 33.8027C37.1112 32.9874 29.4192 35.3595 23.4142 40.1756ZM49.3193 29.5336L54.1175 24.7354C41.0547 20.6275 26.5051 23.3556 15.7027 32.5909C14.3954 33.7086 14.3018 35.6956 15.5178 36.9118C16.5952 37.9892 18.3261 38.073 19.4828 37.0816C27.8803 29.8855 38.9325 27.2868 49.3193 29.5336ZM68.4619 36.9118C69.6781 35.6956 69.5845 33.7086 68.277 32.5909C66.1401 30.764 63.8103 29.1569 61.3248 27.8009L56.9662 32.1595C59.6928 33.4725 62.2222 35.1325 64.4969 37.0816C65.6536 38.073 67.3846 37.9892 68.4619 36.9118ZM49.376 52.5692C50.4593 53.3114 51.986 53.3275 53.1335 52.2404C54.4261 50.9478 54.2409 48.7932 52.7363 47.7554C50.3428 46.1045 47.5521 44.9921 44.5404 44.5854L38.3156 50.8102C41.954 49.745 46.0297 50.2765 49.376 52.5692Z" fill="#29B6F6"/>
<path d="M68.2773 32.5908C66.1404 30.7639 63.8106 29.1568 61.3251 27.8008L60.1133 29.0126C61.8308 30.0853 63.4642 31.2803 64.997 32.5907C66.4822 33.8604 66.3612 36.1795 64.7462 37.2708C65.8914 38.055 67.4597 37.9141 68.4622 36.9116C69.6783 35.6957 69.5846 33.7085 68.2773 32.5908Z" fill="#0288D1"/>
<path d="M60.5655 40.1765C58.3646 38.4114 55.908 36.9532 53.2614 35.8652L52.2236 36.903C54.0235 37.825 55.72 38.9215 57.285 40.1765C58.837 41.4213 58.7509 43.8 57.1063 44.9121C58.2634 45.6902 59.82 45.5546 60.8199 44.5548C62.0616 43.313 61.9353 41.275 60.5655 40.1765Z" fill="#0288D1"/>
<path d="M52.7364 47.7559C50.3429 46.105 47.5522 44.9926 44.5405 44.5859L43.9697 45.1567C45.9498 45.728 47.7982 46.6125 49.4559 47.7559C51.1504 48.9247 51.129 51.4435 49.4196 52.5968C50.5014 53.3114 52.0022 53.3128 53.1337 52.2408C54.4262 50.9485 54.241 48.7937 52.7364 47.7559Z" fill="#0288D1"/>
<path d="M71.6914 12.3081C55.2813 -4.10165 28.7196 -4.10378 12.3077 12.3081C-4.10207 28.7176 -4.10437 55.2796 12.3077 71.6918C28.7178 88.1016 55.2793 88.1037 71.6916 71.6918C88.1012 55.2817 88.1035 28.7202 71.6914 12.3081ZM67.4784 23.3974C67.7828 23.093 68.2887 23.1379 68.5354 23.4906C77.4372 36.216 75.9574 53.7892 64.8734 64.8738C53.7887 75.958 36.2156 77.438 23.49 68.5358C23.1373 68.2891 23.0926 67.7831 23.3968 67.4788L67.4784 23.3974ZM15.4629 60.511C0.853306 39.6865 15.2679 9.65174 41.9995 9.65174C48.7122 9.65174 55.0849 11.657 60.5106 15.4633C60.8628 15.7104 60.9075 16.2159 60.6033 16.5202L16.5197 60.6039C16.2155 60.908 15.7099 60.8632 15.4629 60.511Z" fill="#FF7043"/>
<path d="M57.3965 2.91211C80.5762 17.1855 84.2976 49.2436 65.1307 68.411C52.8878 80.6535 35.038 83.7095 20.042 77.8067C36.0115 87.6405 57.5148 85.8681 71.6917 71.6915C93.2534 50.1294 85.2276 13.8671 57.3965 2.91211Z" fill="#E64A19"/>
</g>
<defs>
<clipPath id="clip0">
<rect width="84" height="84" fill="white"/>
</clipPath>
</defs>
</svg>
