<svg width="82" height="82" viewBox="0 0 82 82" fill="none" xmlns="http://www.w3.org/2000/svg">
<path d="M61 1H21C9.9543 1 1 9.9543 1 21V61C1 72.0457 9.9543 81 21 81H61C72.0457 81 81 72.0457 81 61V21C81 9.9543 72.0457 1 61 1Z" fill="#F5F2F8" stroke="#9E99AB" stroke-dasharray="5 5"/>
<path d="M24.32 60.18C25.008 60.18 25.612 60.04 26.132 59.76C26.656 59.48 27.064 59.086 27.356 58.578C27.652 58.07 27.8 57.474 27.8 56.79V51.36H26.336V56.754C26.336 57.182 26.242 57.55 26.054 57.858C25.87 58.166 25.624 58.404 25.316 58.572C25.012 58.736 24.68 58.818 24.32 58.818C23.972 58.818 23.644 58.736 23.336 58.572C23.028 58.408 22.778 58.172 22.586 57.864C22.398 57.556 22.304 57.186 22.304 56.754V51.36L20.84 51.372V56.79C20.84 57.474 20.986 58.07 21.278 58.578C21.574 59.086 21.984 59.48 22.508 59.76C23.032 60.04 23.636 60.18 24.32 60.18ZM29.4647 62.88H30.9227V59.67C31.1427 59.83 31.3907 59.954 31.6667 60.042C31.9467 60.134 32.2547 60.18 32.5907 60.18C33.1907 60.18 33.7107 60.03 34.1507 59.73C34.5947 59.43 34.9387 59.022 35.1827 58.506C35.4267 57.99 35.5487 57.408 35.5487 56.76C35.5487 56.104 35.4247 55.518 35.1767 55.002C34.9327 54.486 34.5847 54.08 34.1327 53.784C33.6807 53.488 33.1487 53.34 32.5367 53.34C32.1687 53.34 31.8347 53.396 31.5347 53.508C31.2347 53.62 30.9707 53.78 30.7427 53.988V53.52H29.4647V62.88ZM32.3687 58.884C31.7887 58.884 31.3727 58.688 31.1207 58.296C30.8687 57.9 30.7427 57.388 30.7427 56.76C30.7427 56.128 30.8667 55.616 31.1147 55.224C31.3667 54.832 31.7687 54.636 32.3207 54.636C32.7087 54.636 33.0267 54.732 33.2747 54.924C33.5267 55.112 33.7127 55.368 33.8327 55.692C33.9567 56.012 34.0187 56.368 34.0187 56.76C34.0187 57.156 33.9587 57.514 33.8387 57.834C33.7227 58.154 33.5427 58.41 33.2987 58.602C33.0547 58.79 32.7447 58.884 32.3687 58.884ZM36.9913 60H38.4373V51.18H36.9913V60ZM43.0965 60.18C43.7445 60.18 44.3105 60.036 44.7945 59.748C45.2785 59.456 45.6545 59.054 45.9225 58.542C46.1945 58.026 46.3305 57.432 46.3305 56.76C46.3305 56.092 46.1965 55.502 45.9285 54.99C45.6605 54.474 45.2845 54.07 44.8005 53.778C44.3165 53.486 43.7485 53.34 43.0965 53.34C42.4605 53.34 41.9005 53.484 41.4165 53.772C40.9325 54.06 40.5545 54.46 40.2825 54.972C40.0105 55.484 39.8745 56.08 39.8745 56.76C39.8745 57.428 40.0065 58.02 40.2705 58.536C40.5385 59.048 40.9145 59.45 41.3985 59.742C41.8825 60.034 42.4485 60.18 43.0965 60.18ZM43.0965 58.824C42.5405 58.824 42.1185 58.638 41.8305 58.266C41.5465 57.89 41.4045 57.388 41.4045 56.76C41.4045 56.148 41.5405 55.652 41.8125 55.272C42.0885 54.888 42.5165 54.696 43.0965 54.696C43.6645 54.696 44.0905 54.884 44.3745 55.26C44.6585 55.632 44.8005 56.132 44.8005 56.76C44.8005 57.368 44.6585 57.864 44.3745 58.248C44.0945 58.632 43.6685 58.824 43.0965 58.824ZM49.4645 60.18C49.9805 60.18 50.4185 60.096 50.7785 59.928C51.1425 59.756 51.4625 59.49 51.7385 59.13V60H53.0045V56.022C53.0045 55.742 52.9925 55.484 52.9685 55.248C52.9445 55.008 52.8745 54.774 52.7585 54.546C52.5465 54.118 52.2205 53.81 51.7805 53.622C51.3445 53.434 50.8385 53.34 50.2625 53.34C49.5025 53.34 48.8965 53.506 48.4445 53.838C47.9925 54.17 47.6865 54.61 47.5265 55.158L48.8465 55.572C48.9545 55.24 49.1445 55.006 49.4165 54.87C49.6885 54.734 49.9705 54.666 50.2625 54.666C50.7025 54.666 51.0265 54.756 51.2345 54.936C51.4425 55.112 51.5605 55.386 51.5885 55.758C51.0205 55.842 50.4925 55.924 50.0045 56.004C49.5205 56.08 49.1085 56.174 48.7685 56.286C48.2565 56.462 47.8825 56.712 47.6465 57.036C47.4105 57.356 47.2925 57.752 47.2925 58.224C47.2925 58.58 47.3745 58.906 47.5385 59.202C47.7065 59.498 47.9525 59.736 48.2765 59.916C48.6005 60.092 48.9965 60.18 49.4645 60.18ZM49.7525 59.028C49.4125 59.028 49.1525 58.95 48.9725 58.794C48.7965 58.638 48.7085 58.442 48.7085 58.206C48.7085 57.994 48.7765 57.822 48.9125 57.69C49.0525 57.558 49.2465 57.446 49.4945 57.354C49.7225 57.278 49.9965 57.212 50.3165 57.156C50.6365 57.096 51.0545 57.026 51.5705 56.946C51.5665 57.098 51.5565 57.268 51.5405 57.456C51.5245 57.64 51.4865 57.806 51.4265 57.954C51.3785 58.102 51.2845 58.26 51.1445 58.428C51.0085 58.596 50.8245 58.738 50.5925 58.854C50.3605 58.97 50.0805 59.028 49.7525 59.028ZM57.1646 60.18C57.5486 60.18 57.8946 60.122 58.2026 60.006C58.5106 59.89 58.7806 59.728 59.0126 59.52V60H60.2906V51.36H58.8326V53.838C58.6166 53.678 58.3746 53.556 58.1066 53.472C57.8386 53.384 57.5426 53.34 57.2186 53.34C56.6066 53.34 56.0746 53.488 55.6226 53.784C55.1746 54.08 54.8266 54.486 54.5786 55.002C54.3306 55.518 54.2066 56.104 54.2066 56.76C54.2066 57.408 54.3286 57.99 54.5726 58.506C54.8166 59.022 55.1606 59.43 55.6046 59.73C56.0486 60.03 56.5686 60.18 57.1646 60.18ZM57.3866 58.884C57.0106 58.884 56.7006 58.79 56.4566 58.602C56.2126 58.41 56.0306 58.154 55.9106 57.834C55.7946 57.514 55.7366 57.156 55.7366 56.76C55.7366 56.368 55.7966 56.012 55.9166 55.692C56.0406 55.368 56.2266 55.112 56.4746 54.924C56.7266 54.732 57.0466 54.636 57.4346 54.636C57.9866 54.636 58.3866 54.832 58.6346 55.224C58.8866 55.616 59.0126 56.128 59.0126 56.76C59.0126 57.388 58.8866 57.9 58.6346 58.296C58.3866 58.688 57.9706 58.884 57.3866 58.884Z" fill="#564D6D"/>
<path d="M47 24H35C34.2044 24 33.4413 24.3161 32.8787 24.8787C32.3161 25.4413 32 26.2044 32 27V39C32 39.7956 32.3161 40.5587 32.8787 41.1213C33.4413 41.6839 34.2044 42 35 42H47C47.7956 42 48.5587 41.6839 49.1213 41.1213C49.6839 40.5587 50 39.7956 50 39V27C50 26.2044 49.6839 25.4413 49.1213 24.8787C48.5587 24.3161 47.7956 24 47 24ZM35 26H47C47.2652 26 47.5196 26.1054 47.7071 26.2929C47.8946 26.4804 48 26.7348 48 27V35.36L44.8 32.63C44.3042 32.222 43.6821 31.999 43.04 31.999C42.3979 31.999 41.7758 32.222 41.28 32.63L34 38.7V27C34 26.7348 34.1054 26.4804 34.2929 26.2929C34.4804 26.1054 34.7348 26 35 26Z" fill="#9E99AB"/>
<path d="M37 31C37.8284 31 38.5 30.3284 38.5 29.5C38.5 28.6716 37.8284 28 37 28C36.1716 28 35.5 28.6716 35.5 29.5C35.5 30.3284 36.1716 31 37 31Z" fill="#9E99AB"/>
</svg>
